# xmcd
#
# Track frame offsets: 
#        150
#        14133
#        29484
#        44715
#        59728
#        74424
#        88859
#        106463
#        122834
#        137696
#        153229
#        169590
#        183999
#
# Disc length: 2675 seconds
#
# Revision: 0
# Processed by: cddbd v1.5.2PL0 Copyright (c) Steve Scherf et al.
# Submitted via: ExactAudioCopy v0.99pb5
#
DISCID=c10a710d
DTITLE=Mi Mundo - Jody Bernal
DYEAR=2001
DGENRE=Pop
TTITLE0=Nobody Loves You
TTITLE1=Soy Tu Diablo
TTITLE2=Dreams
TTITLE3=La Noche Caliente
TTITLE4=All Night Long
TTITLE5=Manos
TTITLE6=Guantanamera
TTITLE7=Loco Por Ti
TTITLE8=Un Beso Mas
TTITLE9=Fiesta Contigo
TTITLE10=Me Gusta
TTITLE11=Move It Up
TTITLE12=Bambolero
EXTD=
EXTT0=
EXTT1=
EXTT2=
EXTT3=
EXTT4=
EXTT5=
EXTT6=
EXTT7=
EXTT8=
EXTT9=
EXTT10=
EXTT11=
EXTT12=
PLAYORDER=
